G04 #@! TF.GenerationSoftware,KiCad,Pcbnew,8.0.6*
G04 #@! TF.CreationDate,2024-12-11T21:51:18-06:00*
G04 #@! TF.ProjectId,BCoin2024,42436f69-6e32-4303-9234-2e6b69636164,rev?*
G04 #@! TF.SameCoordinates,Original*
G04 #@! TF.FileFunction,Legend,Bot*
G04 #@! TF.FilePolarity,Positive*
%FSLAX46Y46*%
G04 Gerber Fmt 4.6, Leading zero omitted, Abs format (unit mm)*
G04 Created by KiCad (PCBNEW 8.0.6) date 2024-12-11 21:51:18*
%MOMM*%
%LPD*%
G01*
G04 APERTURE LIST*
G04 Aperture macros list*
%AMRoundRect*
0 Rectangle with rounded corners*
0 $1 Rounding radius*
0 $2 $3 $4 $5 $6 $7 $8 $9 X,Y pos of 4 corners*
0 Add a 4 corners polygon primitive as box body*
4,1,4,$2,$3,$4,$5,$6,$7,$8,$9,$2,$3,0*
0 Add four circle primitives for the rounded corners*
1,1,$1+$1,$2,$3*
1,1,$1+$1,$4,$5*
1,1,$1+$1,$6,$7*
1,1,$1+$1,$8,$9*
0 Add four rect primitives between the rounded corners*
20,1,$1+$1,$2,$3,$4,$5,0*
20,1,$1+$1,$4,$5,$6,$7,0*
20,1,$1+$1,$6,$7,$8,$9,0*
20,1,$1+$1,$8,$9,$2,$3,0*%
G04 Aperture macros list end*
%ADD10C,0.800000*%
%ADD11C,0.100000*%
%ADD12C,0.150000*%
%ADD13C,0.127000*%
%ADD14RoundRect,0.102000X3.035000X3.035000X-3.035000X3.035000X-3.035000X-3.035000X3.035000X-3.035000X0*%
G04 APERTURE END LIST*
D10*
X159000000Y-90000000D02*
G75*
G02*
X110000000Y-90000000I-24500000J0D01*
G01*
X110000000Y-90000000D02*
G75*
G02*
X159000000Y-90000000I24500000J0D01*
G01*
D11*
X144714287Y-100027881D02*
X144666668Y-99980262D01*
X144666668Y-99980262D02*
X144571430Y-99932643D01*
X144571430Y-99932643D02*
X144333335Y-99932643D01*
X144333335Y-99932643D02*
X144238097Y-99980262D01*
X144238097Y-99980262D02*
X144190478Y-100027881D01*
X144190478Y-100027881D02*
X144142859Y-100123119D01*
X144142859Y-100123119D02*
X144142859Y-100218357D01*
X144142859Y-100218357D02*
X144190478Y-100361214D01*
X144190478Y-100361214D02*
X144761906Y-100932643D01*
X144761906Y-100932643D02*
X144142859Y-100932643D01*
X143714287Y-100265976D02*
X143714287Y-100932643D01*
X143714287Y-100361214D02*
X143666668Y-100313595D01*
X143666668Y-100313595D02*
X143571430Y-100265976D01*
X143571430Y-100265976D02*
X143428573Y-100265976D01*
X143428573Y-100265976D02*
X143333335Y-100313595D01*
X143333335Y-100313595D02*
X143285716Y-100408833D01*
X143285716Y-100408833D02*
X143285716Y-100932643D01*
X142380954Y-100932643D02*
X142380954Y-99932643D01*
X142380954Y-100885024D02*
X142476192Y-100932643D01*
X142476192Y-100932643D02*
X142666668Y-100932643D01*
X142666668Y-100932643D02*
X142761906Y-100885024D01*
X142761906Y-100885024D02*
X142809525Y-100837404D01*
X142809525Y-100837404D02*
X142857144Y-100742166D01*
X142857144Y-100742166D02*
X142857144Y-100456452D01*
X142857144Y-100456452D02*
X142809525Y-100361214D01*
X142809525Y-100361214D02*
X142761906Y-100313595D01*
X142761906Y-100313595D02*
X142666668Y-100265976D01*
X142666668Y-100265976D02*
X142476192Y-100265976D01*
X142476192Y-100265976D02*
X142380954Y-100313595D01*
X141285715Y-99932643D02*
X140714287Y-99932643D01*
X141000001Y-100932643D02*
X141000001Y-99932643D01*
X140380953Y-100932643D02*
X140380953Y-99932643D01*
X139952382Y-100932643D02*
X139952382Y-100408833D01*
X139952382Y-100408833D02*
X140000001Y-100313595D01*
X140000001Y-100313595D02*
X140095239Y-100265976D01*
X140095239Y-100265976D02*
X140238096Y-100265976D01*
X140238096Y-100265976D02*
X140333334Y-100313595D01*
X140333334Y-100313595D02*
X140380953Y-100361214D01*
X139047620Y-100265976D02*
X139047620Y-100932643D01*
X139476191Y-100265976D02*
X139476191Y-100789785D01*
X139476191Y-100789785D02*
X139428572Y-100885024D01*
X139428572Y-100885024D02*
X139333334Y-100932643D01*
X139333334Y-100932643D02*
X139190477Y-100932643D01*
X139190477Y-100932643D02*
X139095239Y-100885024D01*
X139095239Y-100885024D02*
X139047620Y-100837404D01*
X138571429Y-100932643D02*
X138571429Y-100265976D01*
X138571429Y-100456452D02*
X138523810Y-100361214D01*
X138523810Y-100361214D02*
X138476191Y-100313595D01*
X138476191Y-100313595D02*
X138380953Y-100265976D01*
X138380953Y-100265976D02*
X138285715Y-100265976D01*
X138000000Y-100885024D02*
X137904762Y-100932643D01*
X137904762Y-100932643D02*
X137714286Y-100932643D01*
X137714286Y-100932643D02*
X137619048Y-100885024D01*
X137619048Y-100885024D02*
X137571429Y-100789785D01*
X137571429Y-100789785D02*
X137571429Y-100742166D01*
X137571429Y-100742166D02*
X137619048Y-100646928D01*
X137619048Y-100646928D02*
X137714286Y-100599309D01*
X137714286Y-100599309D02*
X137857143Y-100599309D01*
X137857143Y-100599309D02*
X137952381Y-100551690D01*
X137952381Y-100551690D02*
X138000000Y-100456452D01*
X138000000Y-100456452D02*
X138000000Y-100408833D01*
X138000000Y-100408833D02*
X137952381Y-100313595D01*
X137952381Y-100313595D02*
X137857143Y-100265976D01*
X137857143Y-100265976D02*
X137714286Y-100265976D01*
X137714286Y-100265976D02*
X137619048Y-100313595D01*
X136714286Y-100932643D02*
X136714286Y-99932643D01*
X136714286Y-100885024D02*
X136809524Y-100932643D01*
X136809524Y-100932643D02*
X137000000Y-100932643D01*
X137000000Y-100932643D02*
X137095238Y-100885024D01*
X137095238Y-100885024D02*
X137142857Y-100837404D01*
X137142857Y-100837404D02*
X137190476Y-100742166D01*
X137190476Y-100742166D02*
X137190476Y-100456452D01*
X137190476Y-100456452D02*
X137142857Y-100361214D01*
X137142857Y-100361214D02*
X137095238Y-100313595D01*
X137095238Y-100313595D02*
X137000000Y-100265976D01*
X137000000Y-100265976D02*
X136809524Y-100265976D01*
X136809524Y-100265976D02*
X136714286Y-100313595D01*
X135809524Y-100932643D02*
X135809524Y-100408833D01*
X135809524Y-100408833D02*
X135857143Y-100313595D01*
X135857143Y-100313595D02*
X135952381Y-100265976D01*
X135952381Y-100265976D02*
X136142857Y-100265976D01*
X136142857Y-100265976D02*
X136238095Y-100313595D01*
X135809524Y-100885024D02*
X135904762Y-100932643D01*
X135904762Y-100932643D02*
X136142857Y-100932643D01*
X136142857Y-100932643D02*
X136238095Y-100885024D01*
X136238095Y-100885024D02*
X136285714Y-100789785D01*
X136285714Y-100789785D02*
X136285714Y-100694547D01*
X136285714Y-100694547D02*
X136238095Y-100599309D01*
X136238095Y-100599309D02*
X136142857Y-100551690D01*
X136142857Y-100551690D02*
X135904762Y-100551690D01*
X135904762Y-100551690D02*
X135809524Y-100504071D01*
X135428571Y-100265976D02*
X135190476Y-100932643D01*
X134952381Y-100265976D02*
X135190476Y-100932643D01*
X135190476Y-100932643D02*
X135285714Y-101170738D01*
X135285714Y-101170738D02*
X135333333Y-101218357D01*
X135333333Y-101218357D02*
X135428571Y-101265976D01*
X133666666Y-100932643D02*
X133761904Y-100885024D01*
X133761904Y-100885024D02*
X133809523Y-100837404D01*
X133809523Y-100837404D02*
X133857142Y-100742166D01*
X133857142Y-100742166D02*
X133857142Y-100456452D01*
X133857142Y-100456452D02*
X133809523Y-100361214D01*
X133809523Y-100361214D02*
X133761904Y-100313595D01*
X133761904Y-100313595D02*
X133666666Y-100265976D01*
X133666666Y-100265976D02*
X133523809Y-100265976D01*
X133523809Y-100265976D02*
X133428571Y-100313595D01*
X133428571Y-100313595D02*
X133380952Y-100361214D01*
X133380952Y-100361214D02*
X133333333Y-100456452D01*
X133333333Y-100456452D02*
X133333333Y-100742166D01*
X133333333Y-100742166D02*
X133380952Y-100837404D01*
X133380952Y-100837404D02*
X133428571Y-100885024D01*
X133428571Y-100885024D02*
X133523809Y-100932643D01*
X133523809Y-100932643D02*
X133666666Y-100932643D01*
X133047618Y-100265976D02*
X132666666Y-100265976D01*
X132904761Y-100932643D02*
X132904761Y-100075500D01*
X132904761Y-100075500D02*
X132857142Y-99980262D01*
X132857142Y-99980262D02*
X132761904Y-99932643D01*
X132761904Y-99932643D02*
X132666666Y-99932643D01*
X131714284Y-100265976D02*
X131333332Y-100265976D01*
X131571427Y-99932643D02*
X131571427Y-100789785D01*
X131571427Y-100789785D02*
X131523808Y-100885024D01*
X131523808Y-100885024D02*
X131428570Y-100932643D01*
X131428570Y-100932643D02*
X131333332Y-100932643D01*
X130999998Y-100932643D02*
X130999998Y-99932643D01*
X130571427Y-100932643D02*
X130571427Y-100408833D01*
X130571427Y-100408833D02*
X130619046Y-100313595D01*
X130619046Y-100313595D02*
X130714284Y-100265976D01*
X130714284Y-100265976D02*
X130857141Y-100265976D01*
X130857141Y-100265976D02*
X130952379Y-100313595D01*
X130952379Y-100313595D02*
X130999998Y-100361214D01*
X129714284Y-100885024D02*
X129809522Y-100932643D01*
X129809522Y-100932643D02*
X129999998Y-100932643D01*
X129999998Y-100932643D02*
X130095236Y-100885024D01*
X130095236Y-100885024D02*
X130142855Y-100789785D01*
X130142855Y-100789785D02*
X130142855Y-100408833D01*
X130142855Y-100408833D02*
X130095236Y-100313595D01*
X130095236Y-100313595D02*
X129999998Y-100265976D01*
X129999998Y-100265976D02*
X129809522Y-100265976D01*
X129809522Y-100265976D02*
X129714284Y-100313595D01*
X129714284Y-100313595D02*
X129666665Y-100408833D01*
X129666665Y-100408833D02*
X129666665Y-100504071D01*
X129666665Y-100504071D02*
X130142855Y-100599309D01*
X128476188Y-100932643D02*
X128476188Y-100265976D01*
X128476188Y-100361214D02*
X128428569Y-100313595D01*
X128428569Y-100313595D02*
X128333331Y-100265976D01*
X128333331Y-100265976D02*
X128190474Y-100265976D01*
X128190474Y-100265976D02*
X128095236Y-100313595D01*
X128095236Y-100313595D02*
X128047617Y-100408833D01*
X128047617Y-100408833D02*
X128047617Y-100932643D01*
X128047617Y-100408833D02*
X127999998Y-100313595D01*
X127999998Y-100313595D02*
X127904760Y-100265976D01*
X127904760Y-100265976D02*
X127761903Y-100265976D01*
X127761903Y-100265976D02*
X127666664Y-100313595D01*
X127666664Y-100313595D02*
X127619045Y-100408833D01*
X127619045Y-100408833D02*
X127619045Y-100932643D01*
X126999998Y-100932643D02*
X127095236Y-100885024D01*
X127095236Y-100885024D02*
X127142855Y-100837404D01*
X127142855Y-100837404D02*
X127190474Y-100742166D01*
X127190474Y-100742166D02*
X127190474Y-100456452D01*
X127190474Y-100456452D02*
X127142855Y-100361214D01*
X127142855Y-100361214D02*
X127095236Y-100313595D01*
X127095236Y-100313595D02*
X126999998Y-100265976D01*
X126999998Y-100265976D02*
X126857141Y-100265976D01*
X126857141Y-100265976D02*
X126761903Y-100313595D01*
X126761903Y-100313595D02*
X126714284Y-100361214D01*
X126714284Y-100361214D02*
X126666665Y-100456452D01*
X126666665Y-100456452D02*
X126666665Y-100742166D01*
X126666665Y-100742166D02*
X126714284Y-100837404D01*
X126714284Y-100837404D02*
X126761903Y-100885024D01*
X126761903Y-100885024D02*
X126857141Y-100932643D01*
X126857141Y-100932643D02*
X126999998Y-100932643D01*
X126238093Y-100265976D02*
X126238093Y-100932643D01*
X126238093Y-100361214D02*
X126190474Y-100313595D01*
X126190474Y-100313595D02*
X126095236Y-100265976D01*
X126095236Y-100265976D02*
X125952379Y-100265976D01*
X125952379Y-100265976D02*
X125857141Y-100313595D01*
X125857141Y-100313595D02*
X125809522Y-100408833D01*
X125809522Y-100408833D02*
X125809522Y-100932643D01*
X125476188Y-100265976D02*
X125095236Y-100265976D01*
X125333331Y-99932643D02*
X125333331Y-100789785D01*
X125333331Y-100789785D02*
X125285712Y-100885024D01*
X125285712Y-100885024D02*
X125190474Y-100932643D01*
X125190474Y-100932643D02*
X125095236Y-100932643D01*
X124761902Y-100932643D02*
X124761902Y-99932643D01*
X124333331Y-100932643D02*
X124333331Y-100408833D01*
X124333331Y-100408833D02*
X124380950Y-100313595D01*
X124380950Y-100313595D02*
X124476188Y-100265976D01*
X124476188Y-100265976D02*
X124619045Y-100265976D01*
X124619045Y-100265976D02*
X124714283Y-100313595D01*
X124714283Y-100313595D02*
X124761902Y-100361214D01*
X142904762Y-102542587D02*
X142904762Y-101542587D01*
X142904762Y-101542587D02*
X142523810Y-101542587D01*
X142523810Y-101542587D02*
X142428572Y-101590206D01*
X142428572Y-101590206D02*
X142380953Y-101637825D01*
X142380953Y-101637825D02*
X142333334Y-101733063D01*
X142333334Y-101733063D02*
X142333334Y-101875920D01*
X142333334Y-101875920D02*
X142380953Y-101971158D01*
X142380953Y-101971158D02*
X142428572Y-102018777D01*
X142428572Y-102018777D02*
X142523810Y-102066396D01*
X142523810Y-102066396D02*
X142904762Y-102066396D01*
X141904762Y-102542587D02*
X141904762Y-101875920D01*
X141904762Y-102066396D02*
X141857143Y-101971158D01*
X141857143Y-101971158D02*
X141809524Y-101923539D01*
X141809524Y-101923539D02*
X141714286Y-101875920D01*
X141714286Y-101875920D02*
X141619048Y-101875920D01*
X141285714Y-102542587D02*
X141285714Y-101875920D01*
X141285714Y-101542587D02*
X141333333Y-101590206D01*
X141333333Y-101590206D02*
X141285714Y-101637825D01*
X141285714Y-101637825D02*
X141238095Y-101590206D01*
X141238095Y-101590206D02*
X141285714Y-101542587D01*
X141285714Y-101542587D02*
X141285714Y-101637825D01*
X140809524Y-102542587D02*
X140809524Y-101875920D01*
X140809524Y-101971158D02*
X140761905Y-101923539D01*
X140761905Y-101923539D02*
X140666667Y-101875920D01*
X140666667Y-101875920D02*
X140523810Y-101875920D01*
X140523810Y-101875920D02*
X140428572Y-101923539D01*
X140428572Y-101923539D02*
X140380953Y-102018777D01*
X140380953Y-102018777D02*
X140380953Y-102542587D01*
X140380953Y-102018777D02*
X140333334Y-101923539D01*
X140333334Y-101923539D02*
X140238096Y-101875920D01*
X140238096Y-101875920D02*
X140095239Y-101875920D01*
X140095239Y-101875920D02*
X140000000Y-101923539D01*
X140000000Y-101923539D02*
X139952381Y-102018777D01*
X139952381Y-102018777D02*
X139952381Y-102542587D01*
X139095239Y-102494968D02*
X139190477Y-102542587D01*
X139190477Y-102542587D02*
X139380953Y-102542587D01*
X139380953Y-102542587D02*
X139476191Y-102494968D01*
X139476191Y-102494968D02*
X139523810Y-102399729D01*
X139523810Y-102399729D02*
X139523810Y-102018777D01*
X139523810Y-102018777D02*
X139476191Y-101923539D01*
X139476191Y-101923539D02*
X139380953Y-101875920D01*
X139380953Y-101875920D02*
X139190477Y-101875920D01*
X139190477Y-101875920D02*
X139095239Y-101923539D01*
X139095239Y-101923539D02*
X139047620Y-102018777D01*
X139047620Y-102018777D02*
X139047620Y-102114015D01*
X139047620Y-102114015D02*
X139523810Y-102209253D01*
X138000000Y-101542587D02*
X137428572Y-101542587D01*
X137714286Y-102542587D02*
X137714286Y-101542587D01*
X137095238Y-102542587D02*
X137095238Y-101875920D01*
X137095238Y-101542587D02*
X137142857Y-101590206D01*
X137142857Y-101590206D02*
X137095238Y-101637825D01*
X137095238Y-101637825D02*
X137047619Y-101590206D01*
X137047619Y-101590206D02*
X137095238Y-101542587D01*
X137095238Y-101542587D02*
X137095238Y-101637825D01*
X136619048Y-102542587D02*
X136619048Y-101875920D01*
X136619048Y-101971158D02*
X136571429Y-101923539D01*
X136571429Y-101923539D02*
X136476191Y-101875920D01*
X136476191Y-101875920D02*
X136333334Y-101875920D01*
X136333334Y-101875920D02*
X136238096Y-101923539D01*
X136238096Y-101923539D02*
X136190477Y-102018777D01*
X136190477Y-102018777D02*
X136190477Y-102542587D01*
X136190477Y-102018777D02*
X136142858Y-101923539D01*
X136142858Y-101923539D02*
X136047620Y-101875920D01*
X136047620Y-101875920D02*
X135904763Y-101875920D01*
X135904763Y-101875920D02*
X135809524Y-101923539D01*
X135809524Y-101923539D02*
X135761905Y-102018777D01*
X135761905Y-102018777D02*
X135761905Y-102542587D01*
X134904763Y-102494968D02*
X135000001Y-102542587D01*
X135000001Y-102542587D02*
X135190477Y-102542587D01*
X135190477Y-102542587D02*
X135285715Y-102494968D01*
X135285715Y-102494968D02*
X135333334Y-102399729D01*
X135333334Y-102399729D02*
X135333334Y-102018777D01*
X135333334Y-102018777D02*
X135285715Y-101923539D01*
X135285715Y-101923539D02*
X135190477Y-101875920D01*
X135190477Y-101875920D02*
X135000001Y-101875920D01*
X135000001Y-101875920D02*
X134904763Y-101923539D01*
X134904763Y-101923539D02*
X134857144Y-102018777D01*
X134857144Y-102018777D02*
X134857144Y-102114015D01*
X134857144Y-102114015D02*
X135333334Y-102209253D01*
X133095239Y-102542587D02*
X133428572Y-102066396D01*
X133666667Y-102542587D02*
X133666667Y-101542587D01*
X133666667Y-101542587D02*
X133285715Y-101542587D01*
X133285715Y-101542587D02*
X133190477Y-101590206D01*
X133190477Y-101590206D02*
X133142858Y-101637825D01*
X133142858Y-101637825D02*
X133095239Y-101733063D01*
X133095239Y-101733063D02*
X133095239Y-101875920D01*
X133095239Y-101875920D02*
X133142858Y-101971158D01*
X133142858Y-101971158D02*
X133190477Y-102018777D01*
X133190477Y-102018777D02*
X133285715Y-102066396D01*
X133285715Y-102066396D02*
X133666667Y-102066396D01*
X132285715Y-102494968D02*
X132380953Y-102542587D01*
X132380953Y-102542587D02*
X132571429Y-102542587D01*
X132571429Y-102542587D02*
X132666667Y-102494968D01*
X132666667Y-102494968D02*
X132714286Y-102399729D01*
X132714286Y-102399729D02*
X132714286Y-102018777D01*
X132714286Y-102018777D02*
X132666667Y-101923539D01*
X132666667Y-101923539D02*
X132571429Y-101875920D01*
X132571429Y-101875920D02*
X132380953Y-101875920D01*
X132380953Y-101875920D02*
X132285715Y-101923539D01*
X132285715Y-101923539D02*
X132238096Y-102018777D01*
X132238096Y-102018777D02*
X132238096Y-102114015D01*
X132238096Y-102114015D02*
X132714286Y-102209253D01*
X131857143Y-102494968D02*
X131761905Y-102542587D01*
X131761905Y-102542587D02*
X131571429Y-102542587D01*
X131571429Y-102542587D02*
X131476191Y-102494968D01*
X131476191Y-102494968D02*
X131428572Y-102399729D01*
X131428572Y-102399729D02*
X131428572Y-102352110D01*
X131428572Y-102352110D02*
X131476191Y-102256872D01*
X131476191Y-102256872D02*
X131571429Y-102209253D01*
X131571429Y-102209253D02*
X131714286Y-102209253D01*
X131714286Y-102209253D02*
X131809524Y-102161634D01*
X131809524Y-102161634D02*
X131857143Y-102066396D01*
X131857143Y-102066396D02*
X131857143Y-102018777D01*
X131857143Y-102018777D02*
X131809524Y-101923539D01*
X131809524Y-101923539D02*
X131714286Y-101875920D01*
X131714286Y-101875920D02*
X131571429Y-101875920D01*
X131571429Y-101875920D02*
X131476191Y-101923539D01*
X131142857Y-101875920D02*
X130761905Y-101875920D01*
X131000000Y-101542587D02*
X131000000Y-102399729D01*
X131000000Y-102399729D02*
X130952381Y-102494968D01*
X130952381Y-102494968D02*
X130857143Y-102542587D01*
X130857143Y-102542587D02*
X130761905Y-102542587D01*
X130000000Y-102542587D02*
X130000000Y-102018777D01*
X130000000Y-102018777D02*
X130047619Y-101923539D01*
X130047619Y-101923539D02*
X130142857Y-101875920D01*
X130142857Y-101875920D02*
X130333333Y-101875920D01*
X130333333Y-101875920D02*
X130428571Y-101923539D01*
X130000000Y-102494968D02*
X130095238Y-102542587D01*
X130095238Y-102542587D02*
X130333333Y-102542587D01*
X130333333Y-102542587D02*
X130428571Y-102494968D01*
X130428571Y-102494968D02*
X130476190Y-102399729D01*
X130476190Y-102399729D02*
X130476190Y-102304491D01*
X130476190Y-102304491D02*
X130428571Y-102209253D01*
X130428571Y-102209253D02*
X130333333Y-102161634D01*
X130333333Y-102161634D02*
X130095238Y-102161634D01*
X130095238Y-102161634D02*
X130000000Y-102114015D01*
X129095238Y-101875920D02*
X129095238Y-102542587D01*
X129523809Y-101875920D02*
X129523809Y-102399729D01*
X129523809Y-102399729D02*
X129476190Y-102494968D01*
X129476190Y-102494968D02*
X129380952Y-102542587D01*
X129380952Y-102542587D02*
X129238095Y-102542587D01*
X129238095Y-102542587D02*
X129142857Y-102494968D01*
X129142857Y-102494968D02*
X129095238Y-102447348D01*
X128619047Y-102542587D02*
X128619047Y-101875920D01*
X128619047Y-102066396D02*
X128571428Y-101971158D01*
X128571428Y-101971158D02*
X128523809Y-101923539D01*
X128523809Y-101923539D02*
X128428571Y-101875920D01*
X128428571Y-101875920D02*
X128333333Y-101875920D01*
X127571428Y-102542587D02*
X127571428Y-102018777D01*
X127571428Y-102018777D02*
X127619047Y-101923539D01*
X127619047Y-101923539D02*
X127714285Y-101875920D01*
X127714285Y-101875920D02*
X127904761Y-101875920D01*
X127904761Y-101875920D02*
X127999999Y-101923539D01*
X127571428Y-102494968D02*
X127666666Y-102542587D01*
X127666666Y-102542587D02*
X127904761Y-102542587D01*
X127904761Y-102542587D02*
X127999999Y-102494968D01*
X127999999Y-102494968D02*
X128047618Y-102399729D01*
X128047618Y-102399729D02*
X128047618Y-102304491D01*
X128047618Y-102304491D02*
X127999999Y-102209253D01*
X127999999Y-102209253D02*
X127904761Y-102161634D01*
X127904761Y-102161634D02*
X127666666Y-102161634D01*
X127666666Y-102161634D02*
X127571428Y-102114015D01*
X127095237Y-101875920D02*
X127095237Y-102542587D01*
X127095237Y-101971158D02*
X127047618Y-101923539D01*
X127047618Y-101923539D02*
X126952380Y-101875920D01*
X126952380Y-101875920D02*
X126809523Y-101875920D01*
X126809523Y-101875920D02*
X126714285Y-101923539D01*
X126714285Y-101923539D02*
X126666666Y-102018777D01*
X126666666Y-102018777D02*
X126666666Y-102542587D01*
X126333332Y-101875920D02*
X125952380Y-101875920D01*
X126190475Y-101542587D02*
X126190475Y-102399729D01*
X126190475Y-102399729D02*
X126142856Y-102494968D01*
X126142856Y-102494968D02*
X126047618Y-102542587D01*
X126047618Y-102542587D02*
X125952380Y-102542587D01*
X139071428Y-104152531D02*
X139071428Y-103152531D01*
X139071428Y-103628721D02*
X138500000Y-103628721D01*
X138500000Y-104152531D02*
X138500000Y-103152531D01*
X138023809Y-104152531D02*
X138023809Y-103485864D01*
X138023809Y-103152531D02*
X138071428Y-103200150D01*
X138071428Y-103200150D02*
X138023809Y-103247769D01*
X138023809Y-103247769D02*
X137976190Y-103200150D01*
X137976190Y-103200150D02*
X138023809Y-103152531D01*
X138023809Y-103152531D02*
X138023809Y-103247769D01*
X137119048Y-104104912D02*
X137214286Y-104152531D01*
X137214286Y-104152531D02*
X137404762Y-104152531D01*
X137404762Y-104152531D02*
X137500000Y-104104912D01*
X137500000Y-104104912D02*
X137547619Y-104057292D01*
X137547619Y-104057292D02*
X137595238Y-103962054D01*
X137595238Y-103962054D02*
X137595238Y-103676340D01*
X137595238Y-103676340D02*
X137547619Y-103581102D01*
X137547619Y-103581102D02*
X137500000Y-103533483D01*
X137500000Y-103533483D02*
X137404762Y-103485864D01*
X137404762Y-103485864D02*
X137214286Y-103485864D01*
X137214286Y-103485864D02*
X137119048Y-103533483D01*
X136690476Y-104152531D02*
X136690476Y-103152531D01*
X136595238Y-103771578D02*
X136309524Y-104152531D01*
X136309524Y-103485864D02*
X136690476Y-103866816D01*
X135738095Y-104152531D02*
X135833333Y-104104912D01*
X135833333Y-104104912D02*
X135880952Y-104057292D01*
X135880952Y-104057292D02*
X135928571Y-103962054D01*
X135928571Y-103962054D02*
X135928571Y-103676340D01*
X135928571Y-103676340D02*
X135880952Y-103581102D01*
X135880952Y-103581102D02*
X135833333Y-103533483D01*
X135833333Y-103533483D02*
X135738095Y-103485864D01*
X135738095Y-103485864D02*
X135595238Y-103485864D01*
X135595238Y-103485864D02*
X135500000Y-103533483D01*
X135500000Y-103533483D02*
X135452381Y-103581102D01*
X135452381Y-103581102D02*
X135404762Y-103676340D01*
X135404762Y-103676340D02*
X135404762Y-103962054D01*
X135404762Y-103962054D02*
X135452381Y-104057292D01*
X135452381Y-104057292D02*
X135500000Y-104104912D01*
X135500000Y-104104912D02*
X135595238Y-104152531D01*
X135595238Y-104152531D02*
X135738095Y-104152531D01*
X134976190Y-104152531D02*
X134976190Y-103485864D01*
X134976190Y-103676340D02*
X134928571Y-103581102D01*
X134928571Y-103581102D02*
X134880952Y-103533483D01*
X134880952Y-103533483D02*
X134785714Y-103485864D01*
X134785714Y-103485864D02*
X134690476Y-103485864D01*
X134452380Y-103485864D02*
X134214285Y-104152531D01*
X133976190Y-103485864D02*
X134214285Y-104152531D01*
X134214285Y-104152531D02*
X134309523Y-104390626D01*
X134309523Y-104390626D02*
X134357142Y-104438245D01*
X134357142Y-104438245D02*
X134452380Y-104485864D01*
X132833332Y-104152531D02*
X132833332Y-103152531D01*
X132833332Y-103628721D02*
X132261904Y-103628721D01*
X132261904Y-104152531D02*
X132261904Y-103152531D01*
X131785713Y-104152531D02*
X131785713Y-103485864D01*
X131785713Y-103152531D02*
X131833332Y-103200150D01*
X131833332Y-103200150D02*
X131785713Y-103247769D01*
X131785713Y-103247769D02*
X131738094Y-103200150D01*
X131738094Y-103200150D02*
X131785713Y-103152531D01*
X131785713Y-103152531D02*
X131785713Y-103247769D01*
X131166666Y-104152531D02*
X131261904Y-104104912D01*
X131261904Y-104104912D02*
X131309523Y-104009673D01*
X131309523Y-104009673D02*
X131309523Y-103152531D01*
X130642856Y-104152531D02*
X130738094Y-104104912D01*
X130738094Y-104104912D02*
X130785713Y-104009673D01*
X130785713Y-104009673D02*
X130785713Y-103152531D01*
X130309522Y-104104912D02*
X130214284Y-104152531D01*
X130214284Y-104152531D02*
X130023808Y-104152531D01*
X130023808Y-104152531D02*
X129928570Y-104104912D01*
X129928570Y-104104912D02*
X129880951Y-104009673D01*
X129880951Y-104009673D02*
X129880951Y-103962054D01*
X129880951Y-103962054D02*
X129928570Y-103866816D01*
X129928570Y-103866816D02*
X130023808Y-103819197D01*
X130023808Y-103819197D02*
X130166665Y-103819197D01*
X130166665Y-103819197D02*
X130261903Y-103771578D01*
X130261903Y-103771578D02*
X130309522Y-103676340D01*
X130309522Y-103676340D02*
X130309522Y-103628721D01*
X130309522Y-103628721D02*
X130261903Y-103533483D01*
X130261903Y-103533483D02*
X130166665Y-103485864D01*
X130166665Y-103485864D02*
X130023808Y-103485864D01*
X130023808Y-103485864D02*
X129928570Y-103533483D01*
X137047619Y-105762475D02*
X136857143Y-105762475D01*
X136857143Y-105762475D02*
X136761905Y-105714856D01*
X136761905Y-105714856D02*
X136714286Y-105667236D01*
X136714286Y-105667236D02*
X136619048Y-105524379D01*
X136619048Y-105524379D02*
X136571429Y-105333903D01*
X136571429Y-105333903D02*
X136571429Y-104952951D01*
X136571429Y-104952951D02*
X136619048Y-104857713D01*
X136619048Y-104857713D02*
X136666667Y-104810094D01*
X136666667Y-104810094D02*
X136761905Y-104762475D01*
X136761905Y-104762475D02*
X136952381Y-104762475D01*
X136952381Y-104762475D02*
X137047619Y-104810094D01*
X137047619Y-104810094D02*
X137095238Y-104857713D01*
X137095238Y-104857713D02*
X137142857Y-104952951D01*
X137142857Y-104952951D02*
X137142857Y-105191046D01*
X137142857Y-105191046D02*
X137095238Y-105286284D01*
X137095238Y-105286284D02*
X137047619Y-105333903D01*
X137047619Y-105333903D02*
X136952381Y-105381522D01*
X136952381Y-105381522D02*
X136761905Y-105381522D01*
X136761905Y-105381522D02*
X136666667Y-105333903D01*
X136666667Y-105333903D02*
X136619048Y-105286284D01*
X136619048Y-105286284D02*
X136571429Y-105191046D01*
X135666667Y-104762475D02*
X136142857Y-104762475D01*
X136142857Y-104762475D02*
X136190476Y-105238665D01*
X136190476Y-105238665D02*
X136142857Y-105191046D01*
X136142857Y-105191046D02*
X136047619Y-105143427D01*
X136047619Y-105143427D02*
X135809524Y-105143427D01*
X135809524Y-105143427D02*
X135714286Y-105191046D01*
X135714286Y-105191046D02*
X135666667Y-105238665D01*
X135666667Y-105238665D02*
X135619048Y-105333903D01*
X135619048Y-105333903D02*
X135619048Y-105571998D01*
X135619048Y-105571998D02*
X135666667Y-105667236D01*
X135666667Y-105667236D02*
X135714286Y-105714856D01*
X135714286Y-105714856D02*
X135809524Y-105762475D01*
X135809524Y-105762475D02*
X136047619Y-105762475D01*
X136047619Y-105762475D02*
X136142857Y-105714856D01*
X136142857Y-105714856D02*
X136190476Y-105667236D01*
X135333333Y-105095808D02*
X134952381Y-105095808D01*
X135190476Y-104762475D02*
X135190476Y-105619617D01*
X135190476Y-105619617D02*
X135142857Y-105714856D01*
X135142857Y-105714856D02*
X135047619Y-105762475D01*
X135047619Y-105762475D02*
X134952381Y-105762475D01*
X134619047Y-105762475D02*
X134619047Y-104762475D01*
X134190476Y-105762475D02*
X134190476Y-105238665D01*
X134190476Y-105238665D02*
X134238095Y-105143427D01*
X134238095Y-105143427D02*
X134333333Y-105095808D01*
X134333333Y-105095808D02*
X134476190Y-105095808D01*
X134476190Y-105095808D02*
X134571428Y-105143427D01*
X134571428Y-105143427D02*
X134619047Y-105191046D01*
X132999999Y-105714856D02*
X132857142Y-105762475D01*
X132857142Y-105762475D02*
X132619047Y-105762475D01*
X132619047Y-105762475D02*
X132523809Y-105714856D01*
X132523809Y-105714856D02*
X132476190Y-105667236D01*
X132476190Y-105667236D02*
X132428571Y-105571998D01*
X132428571Y-105571998D02*
X132428571Y-105476760D01*
X132428571Y-105476760D02*
X132476190Y-105381522D01*
X132476190Y-105381522D02*
X132523809Y-105333903D01*
X132523809Y-105333903D02*
X132619047Y-105286284D01*
X132619047Y-105286284D02*
X132809523Y-105238665D01*
X132809523Y-105238665D02*
X132904761Y-105191046D01*
X132904761Y-105191046D02*
X132952380Y-105143427D01*
X132952380Y-105143427D02*
X132999999Y-105048189D01*
X132999999Y-105048189D02*
X132999999Y-104952951D01*
X132999999Y-104952951D02*
X132952380Y-104857713D01*
X132952380Y-104857713D02*
X132904761Y-104810094D01*
X132904761Y-104810094D02*
X132809523Y-104762475D01*
X132809523Y-104762475D02*
X132571428Y-104762475D01*
X132571428Y-104762475D02*
X132428571Y-104810094D01*
X132142856Y-105095808D02*
X131761904Y-105095808D01*
X131999999Y-104762475D02*
X131999999Y-105619617D01*
X131999999Y-105619617D02*
X131952380Y-105714856D01*
X131952380Y-105714856D02*
X131857142Y-105762475D01*
X131857142Y-105762475D02*
X131761904Y-105762475D01*
X136952380Y-106372419D02*
X137142856Y-106372419D01*
X137142856Y-106372419D02*
X137238094Y-106420038D01*
X137238094Y-106420038D02*
X137285713Y-106467657D01*
X137285713Y-106467657D02*
X137380951Y-106610514D01*
X137380951Y-106610514D02*
X137428570Y-106800990D01*
X137428570Y-106800990D02*
X137428570Y-107181942D01*
X137428570Y-107181942D02*
X137380951Y-107277180D01*
X137380951Y-107277180D02*
X137333332Y-107324800D01*
X137333332Y-107324800D02*
X137238094Y-107372419D01*
X137238094Y-107372419D02*
X137047618Y-107372419D01*
X137047618Y-107372419D02*
X136952380Y-107324800D01*
X136952380Y-107324800D02*
X136904761Y-107277180D01*
X136904761Y-107277180D02*
X136857142Y-107181942D01*
X136857142Y-107181942D02*
X136857142Y-106943847D01*
X136857142Y-106943847D02*
X136904761Y-106848609D01*
X136904761Y-106848609D02*
X136952380Y-106800990D01*
X136952380Y-106800990D02*
X137047618Y-106753371D01*
X137047618Y-106753371D02*
X137238094Y-106753371D01*
X137238094Y-106753371D02*
X137333332Y-106800990D01*
X137333332Y-106800990D02*
X137380951Y-106848609D01*
X137380951Y-106848609D02*
X137428570Y-106943847D01*
X136428570Y-107277180D02*
X136380951Y-107324800D01*
X136380951Y-107324800D02*
X136428570Y-107372419D01*
X136428570Y-107372419D02*
X136476189Y-107324800D01*
X136476189Y-107324800D02*
X136428570Y-107277180D01*
X136428570Y-107277180D02*
X136428570Y-107372419D01*
X136428570Y-106753371D02*
X136380951Y-106800990D01*
X136380951Y-106800990D02*
X136428570Y-106848609D01*
X136428570Y-106848609D02*
X136476189Y-106800990D01*
X136476189Y-106800990D02*
X136428570Y-106753371D01*
X136428570Y-106753371D02*
X136428570Y-106848609D01*
X136047618Y-106372419D02*
X135428571Y-106372419D01*
X135428571Y-106372419D02*
X135761904Y-106753371D01*
X135761904Y-106753371D02*
X135619047Y-106753371D01*
X135619047Y-106753371D02*
X135523809Y-106800990D01*
X135523809Y-106800990D02*
X135476190Y-106848609D01*
X135476190Y-106848609D02*
X135428571Y-106943847D01*
X135428571Y-106943847D02*
X135428571Y-107181942D01*
X135428571Y-107181942D02*
X135476190Y-107277180D01*
X135476190Y-107277180D02*
X135523809Y-107324800D01*
X135523809Y-107324800D02*
X135619047Y-107372419D01*
X135619047Y-107372419D02*
X135904761Y-107372419D01*
X135904761Y-107372419D02*
X135999999Y-107324800D01*
X135999999Y-107324800D02*
X136047618Y-107277180D01*
X134809523Y-106372419D02*
X134714285Y-106372419D01*
X134714285Y-106372419D02*
X134619047Y-106420038D01*
X134619047Y-106420038D02*
X134571428Y-106467657D01*
X134571428Y-106467657D02*
X134523809Y-106562895D01*
X134523809Y-106562895D02*
X134476190Y-106753371D01*
X134476190Y-106753371D02*
X134476190Y-106991466D01*
X134476190Y-106991466D02*
X134523809Y-107181942D01*
X134523809Y-107181942D02*
X134571428Y-107277180D01*
X134571428Y-107277180D02*
X134619047Y-107324800D01*
X134619047Y-107324800D02*
X134714285Y-107372419D01*
X134714285Y-107372419D02*
X134809523Y-107372419D01*
X134809523Y-107372419D02*
X134904761Y-107324800D01*
X134904761Y-107324800D02*
X134952380Y-107277180D01*
X134952380Y-107277180D02*
X134999999Y-107181942D01*
X134999999Y-107181942D02*
X135047618Y-106991466D01*
X135047618Y-106991466D02*
X135047618Y-106753371D01*
X135047618Y-106753371D02*
X134999999Y-106562895D01*
X134999999Y-106562895D02*
X134952380Y-106467657D01*
X134952380Y-106467657D02*
X134904761Y-106420038D01*
X134904761Y-106420038D02*
X134809523Y-106372419D01*
X133285713Y-107372419D02*
X133285713Y-106372419D01*
X133285713Y-106372419D02*
X132904761Y-106372419D01*
X132904761Y-106372419D02*
X132809523Y-106420038D01*
X132809523Y-106420038D02*
X132761904Y-106467657D01*
X132761904Y-106467657D02*
X132714285Y-106562895D01*
X132714285Y-106562895D02*
X132714285Y-106705752D01*
X132714285Y-106705752D02*
X132761904Y-106800990D01*
X132761904Y-106800990D02*
X132809523Y-106848609D01*
X132809523Y-106848609D02*
X132904761Y-106896228D01*
X132904761Y-106896228D02*
X133285713Y-106896228D01*
X132285713Y-107372419D02*
X132285713Y-106372419D01*
X132285713Y-106372419D02*
X131952380Y-107086704D01*
X131952380Y-107086704D02*
X131619047Y-106372419D01*
X131619047Y-106372419D02*
X131619047Y-107372419D01*
D12*
X134787112Y-70930900D02*
X134644000Y-70978604D01*
X134644000Y-70978604D02*
X134596297Y-71026308D01*
X134596297Y-71026308D02*
X134548593Y-71121716D01*
X134548593Y-71121716D02*
X134548593Y-71264827D01*
X134548593Y-71264827D02*
X134596297Y-71360235D01*
X134596297Y-71360235D02*
X134644000Y-71407939D01*
X134644000Y-71407939D02*
X134739408Y-71455642D01*
X134739408Y-71455642D02*
X135121038Y-71455642D01*
X135121038Y-71455642D02*
X135121038Y-70453862D01*
X135121038Y-70453862D02*
X134787112Y-70453862D01*
X134787112Y-70453862D02*
X134691704Y-70501566D01*
X134691704Y-70501566D02*
X134644000Y-70549270D01*
X134644000Y-70549270D02*
X134596297Y-70644678D01*
X134596297Y-70644678D02*
X134596297Y-70740085D01*
X134596297Y-70740085D02*
X134644000Y-70835493D01*
X134644000Y-70835493D02*
X134691704Y-70883197D01*
X134691704Y-70883197D02*
X134787112Y-70930900D01*
X134787112Y-70930900D02*
X135121038Y-70930900D01*
X134262370Y-70453862D02*
X133689924Y-70453862D01*
X133976147Y-71455642D02*
X133976147Y-70453862D01*
X132831256Y-71455642D02*
X133403701Y-71455642D01*
X133117478Y-71455642D02*
X133117478Y-70453862D01*
X133117478Y-70453862D02*
X133212886Y-70596974D01*
X133212886Y-70596974D02*
X133308294Y-70692381D01*
X133308294Y-70692381D02*
X133403701Y-70740085D01*
D13*
X124115000Y-74540000D02*
X124115000Y-76645000D01*
X124115000Y-83355000D02*
X124115000Y-84750000D01*
X130920000Y-92050000D02*
X124115000Y-84750000D01*
X138420000Y-92050000D02*
X130920000Y-92050000D01*
X145225000Y-74540000D02*
X145225000Y-76645000D01*
X145225000Y-83355000D02*
X145225000Y-84750000D01*
X145225000Y-84750000D02*
X138420000Y-92050000D01*
X124115000Y-74540000D02*
G75*
G02*
X128019999Y-72845003I2342010J-49870D01*
G01*
X141320000Y-72845000D02*
G75*
G02*
X128020000Y-72845000I-6650000J6705887D01*
G01*
X141320000Y-72845000D02*
G75*
G02*
X145225001Y-74540000I1599373J-1661047D01*
G01*
%LPC*%
D14*
X134670000Y-80000000D03*
X147000000Y-80000000D03*
X122340000Y-80000000D03*
%LPD*%
M02*
